<svg width="505" height="287" viewBox="0 0 505 287" fill="none" xmlns="http://www.w3.org/2000/svg">
<path fill-rule="evenodd" clip-rule="evenodd" d="M0.190278 153.757C8.33015 77.4358 445.069 -69.8719 526.148 2.41792C607.227 74.7077 586.704 226.761 416.793 261.502C246.881 296.244 -7.94959 230.078 0.190278 153.757Z" fill="#DDE3E9" fill-opacity="0.06"/>
<path fill-rule="evenodd" clip-rule="evenodd" d="M568.515 319.312C511.461 370.654 88.1051 188.418 76.0881 80.459C64.071 -27.5003 180.942 -126.912 330.567 -39.2232C480.192 48.4653 625.569 267.969 568.515 319.312Z" fill="#DDE3E9" fill-opacity="0.06"/>
<path d="M380.474 17.0074C363.177 14.1068 347.873 16.1235 333.685 23.1698C321.963 28.9914 310.803 38.4666 299.568 52.1353C290.129 63.6219 281.52 76.9068 273.196 89.7552C263.411 104.854 253.295 120.47 241.969 132.844C221.524 155.186 213.299 173.921 217.521 188.526C221.183 201.201 234.052 210.643 255.774 216.584C277.626 222.563 303.468 223.61 321.299 223.437C342.209 223.234 364.107 221.2 379.876 217.995C395.152 214.891 414.692 209.832 430.334 198.16C440.441 190.62 448.841 180.435 455.3 167.887C458.107 162.435 460.502 156.643 462.47 150.551C464.589 143.991 466.215 137.085 467.329 129.881C469.308 117.088 468.327 104.055 464.414 91.1466C460.715 78.9389 454.584 67.3964 446.194 56.8426C429.394 35.7128 405.441 21.1934 380.474 17.0074ZM445.673 57.2567C454.01 67.7444 460.102 79.2137 463.776 91.341C467.66 104.153 468.633 117.087 466.669 129.782C464.531 143.602 460.506 156.321 454.709 167.585C448.296 180.04 439.96 190.148 429.936 197.629C421.774 203.718 408.693 211.462 379.744 217.345C364.012 220.541 342.162 222.571 321.292 222.774C303.503 222.946 277.726 221.901 255.948 215.944C234.466 210.066 221.752 200.78 218.157 188.342C216.494 182.584 216.808 176.163 219.088 169.105C222.498 158.549 230.305 146.572 242.459 133.294C253.822 120.878 263.955 105.239 273.754 90.1172C282.068 77.2843 290.667 64.0171 300.084 52.558C311.412 38.7728 322.183 29.6236 333.982 23.7641C348.04 16.7828 363.211 14.7863 380.365 17.6636C405.171 21.821 428.975 36.2528 445.673 57.2567Z" fill="white" fill-opacity="0.1"/>
<path d="M336.89 31.4865C325.868 36.9428 315.404 45.8278 304.902 58.6481C296.125 69.3541 288.156 81.7374 280.448 93.7111C276.506 99.8361 272.43 106.167 268.319 112.158C267.114 113.916 265.928 115.61 264.795 117.193C259.964 123.944 255.479 129.553 251.077 134.347C227.798 159.739 221.406 180.023 232.079 194.64C237.83 202.487 248.471 208.598 263.705 212.807C278.968 217.06 298.915 219.321 321.385 219.349C342.267 219.377 364.286 217.445 380.285 214.184C394.588 211.273 412.886 206.533 427.541 195.613C441.214 185.429 451.601 169.966 457.718 151.03C459.686 144.94 461.212 138.486 462.265 131.738C464.112 119.927 463.257 107.891 459.724 95.9604C456.378 84.6633 450.794 73.9426 443.125 64.092C427.32 43.7772 404.59 29.8112 380.762 25.7744C364.536 23.0335 350.186 24.9019 336.89 31.4865ZM442.597 64.5013C450.216 74.2843 455.763 84.9325 459.083 96.1493C462.589 107.985 463.436 119.923 461.603 131.636C459.59 144.558 455.811 156.452 450.368 166.985C444.352 178.63 436.536 188.082 427.14 195.079C419.498 200.772 407.251 208.017 380.151 213.531C364.192 216.782 342.225 218.709 321.384 218.683C298.974 218.656 279.09 216.401 263.882 212.165C248.796 208 238.276 201.97 232.616 194.247C227.356 187.045 226.355 178.408 229.586 168.404C232.781 158.514 240.118 147.287 251.568 134.796C255.986 129.985 260.489 124.353 265.336 117.58C266.471 115.993 267.66 114.295 268.869 112.534C272.984 106.537 277.064 100.2 281.007 94.0711C288.703 82.1122 296.662 69.7465 305.416 59.0701C315.856 46.3233 326.248 37.4964 337.184 32.0823C350.352 25.5633 364.567 23.7144 380.646 26.4307C404.313 30.4389 426.892 44.3144 442.597 64.5013Z" fill="white" fill-opacity="0.1"/>
<path d="M340.091 39.8086C329.769 44.8996 320.003 53.1951 310.232 65.1662C302.113 75.0974 294.779 86.582 287.687 97.688C283.982 103.489 280.151 109.487 276.275 115.156C275.152 116.801 274.048 118.381 272.994 119.857C268.512 126.132 264.323 131.364 260.188 135.852C248.862 148.176 241.733 159.3 238.99 168.917C236.481 177.719 237.579 185.479 242.254 191.985C247.548 199.293 257.433 205.027 271.635 209.029C289.774 214.139 310.979 215.23 325.576 215.244C345.071 215.263 365.674 213.443 380.69 210.371C394.022 207.655 411.075 203.231 424.74 193.066C437.544 183.549 447.269 169.094 452.984 151.398C454.801 145.774 456.215 139.819 457.192 133.594C458.935 122.574 458.149 111.34 454.854 100.203C451.73 89.6461 446.496 79.616 439.3 70.3959C424.53 51.426 403.296 38.36 381.037 34.5462C365.893 31.9684 352.498 33.6891 340.091 39.8086ZM438.779 70.8051C445.923 79.9618 451.116 89.916 454.219 100.394C457.488 111.433 458.268 122.57 456.538 133.492C455.566 139.685 454.162 145.602 452.355 151.197C446.682 168.758 437.039 183.101 424.346 192.535C417.222 197.833 405.808 204.576 380.56 209.723C365.584 212.785 345.03 214.603 325.578 214.581C311.023 214.567 289.883 213.48 271.818 208.391C257.763 204.431 247.997 198.782 242.795 191.601C238.246 185.269 237.182 177.699 239.631 169.103C239.758 168.657 239.894 168.21 240.039 167.758C243.014 158.552 249.95 147.98 260.676 136.303C264.829 131.795 269.036 126.543 273.535 120.244C274.592 118.764 275.699 117.177 276.825 115.531C280.705 109.855 284.54 103.851 288.248 98.0465C295.331 86.956 302.655 75.489 310.749 65.5868C320.458 53.6891 330.154 45.4525 340.387 40.405C352.664 34.3505 365.925 32.6472 380.93 35.2031C403.025 38.9876 424.109 51.9653 438.779 70.8051Z" fill="white" fill-opacity="0.1"/>
<path d="M343.301 48.1265C333.682 52.8508 324.612 60.556 315.569 71.6794C308.104 80.8393 301.401 91.4308 294.918 101.674C291.455 107.146 287.874 112.803 284.236 118.146C283.198 119.671 282.174 121.14 281.197 122.513C277.061 128.317 273.169 133.17 269.301 137.351C258.785 148.767 252.143 159.057 249.555 167.932C247.177 176.085 248.147 183.282 252.438 189.328C257.25 196.109 266.379 201.463 279.576 205.247C296.482 210.096 316.209 211.124 329.78 211.135C347.886 211.151 367.073 209.439 381.109 206.556C393.467 204.032 409.278 199.928 421.955 190.516C433.891 181.666 442.951 168.22 448.267 151.764C449.934 146.606 451.233 141.148 452.136 135.448C455.354 115.403 449.445 94.5377 435.493 76.6962C428.887 68.2184 420.558 60.7188 411.406 55.0075C401.869 49.0553 391.751 45.1204 381.334 43.313C367.257 40.8963 354.818 42.4715 343.301 48.1265ZM411.053 55.5756C420.139 61.2448 428.408 68.6903 434.967 77.1082C448.802 94.8029 454.666 115.485 451.475 135.346C447.717 159.061 437.091 178.466 421.553 189.986C414.951 194.888 404.37 201.129 380.971 205.908C366.978 208.781 347.839 210.488 329.777 210.473C316.248 210.464 296.589 209.439 279.756 204.611C266.711 200.87 257.701 195.6 252.978 188.946C248.813 183.076 247.874 176.07 250.193 168.122C252.749 159.344 259.345 149.146 269.79 137.805C273.679 133.603 277.587 128.729 281.74 122.903C282.722 121.527 283.748 120.054 284.788 118.522C288.431 113.169 292.016 107.506 295.483 102.031C301.956 91.8055 308.648 81.2316 316.088 72.1007C325.067 61.0521 334.065 53.4051 343.597 48.725C354.984 43.1329 367.291 41.5778 381.221 43.9728C391.549 45.7655 401.587 49.6697 411.053 55.5756Z" fill="white" fill-opacity="0.1"/>
<path d="M346.506 56.4475C337.591 60.805 329.214 67.9194 320.904 78.1964C314.088 86.5928 308.009 96.2983 302.134 105.683C298.917 110.82 295.592 116.131 292.196 121.142C291.243 122.551 290.302 123.907 289.397 125.177C285.607 130.511 282.012 134.983 278.411 138.856C268.707 149.361 262.553 158.816 260.122 166.945C257.88 174.442 258.719 181.079 262.614 186.674C266.973 192.933 275.348 197.911 287.508 201.469C303.179 206.057 321.427 207.024 333.974 207.03C350.692 207.04 368.466 205.437 381.517 202.746C392.903 200.416 407.472 196.63 419.16 187.972C430.226 179.79 438.625 167.352 443.54 152.136C445.057 147.442 446.241 142.485 447.071 137.308C450.091 118.804 444.624 99.5182 431.676 83.0045C425.576 75.1864 417.883 68.2555 409.424 62.966C400.598 57.4458 391.242 53.7856 381.616 52.0893C368.619 49.8279 357.133 51.2548 346.506 56.4475ZM409.073 63.5257C417.466 68.7752 425.1 75.6498 431.154 83.4088C443.984 99.775 449.406 118.878 446.414 137.198C442.923 158.992 433.102 176.834 418.765 187.435C412.682 191.942 402.933 197.681 381.385 202.093C368.371 204.778 350.651 206.375 333.975 206.365C321.471 206.361 303.29 205.396 287.695 200.831C275.685 197.317 267.431 192.424 263.162 186.292C259.389 180.872 258.581 174.426 260.76 167.133C263.162 159.099 269.266 149.735 278.9 139.305C282.521 135.412 286.132 130.916 289.94 125.56C290.847 124.286 291.79 122.925 292.747 121.513C296.148 116.492 299.477 111.175 302.698 106.035C308.566 96.6667 314.632 86.9781 321.421 78.6128C329.67 68.4113 337.972 61.3565 346.799 57.0425C357.294 51.9121 368.647 50.5053 381.502 52.7393C391.044 54.4223 400.318 58.0518 409.073 63.5257Z" fill="white" fill-opacity="0.1"/>
<path d="M349.727 64.7669C341.512 68.757 333.834 75.2819 326.251 84.7112C320.08 92.3468 314.622 101.175 309.344 109.712C306.379 114.506 303.315 119.466 300.166 124.138C299.296 125.431 298.435 126.676 297.61 127.839C294.21 132.635 290.914 136.731 287.534 140.361C278.628 149.927 272.956 158.541 270.685 165.944C268.586 172.788 269.298 178.868 272.803 184.02C276.71 189.76 284.329 194.361 295.451 197.693C309.882 202.018 326.654 202.925 338.181 202.926C353.511 202.927 369.87 201.435 381.938 198.934C392.353 196.796 405.678 193.33 416.375 185.426C426.574 177.911 434.309 166.481 438.824 152.505C440.189 148.279 441.261 143.816 442.016 139.163C444.837 122.201 439.814 104.496 427.872 89.3064C422.279 82.1458 415.219 75.7872 407.456 70.918C399.343 65.8285 390.748 62.4443 381.915 60.8598C369.99 58.7588 359.461 60.0381 349.727 64.7669ZM407.103 71.477C414.802 76.3069 421.803 82.6113 427.35 89.7128C439.176 104.753 444.151 122.275 441.363 139.052C438.14 158.925 429.126 175.202 415.983 184.887C410.419 188.998 401.506 194.236 381.805 198.279C369.777 200.772 353.47 202.259 338.183 202.258C326.7 202.258 309.999 201.355 295.644 197.053C284.671 193.764 277.172 189.252 273.354 183.641C269.919 178.594 269.255 172.867 271.322 166.134C273.565 158.817 279.185 150.3 288.023 140.808C291.422 137.156 294.736 133.038 298.154 128.218C298.983 127.051 299.845 125.802 300.719 124.503C303.874 119.819 306.942 114.855 309.911 110.055C315.178 101.536 320.625 92.7279 326.77 85.1234C334.29 75.7717 341.894 69.3064 350.018 65.3592C359.622 60.6932 370.02 59.432 381.802 61.5056C390.55 63.0811 399.063 66.4345 407.103 71.477Z" fill="white" fill-opacity="0.1"/>
<path d="M352.946 73.0718C345.441 76.6972 338.457 82.6361 331.597 91.2297C326.063 98.1144 321.218 106.069 316.534 113.766C313.828 118.211 311.029 122.81 308.135 127.135C307.35 128.309 306.572 129.443 305.822 130.503C302.814 134.761 299.73 138.583 296.657 141.866C280.966 158.627 276.496 171.547 282.993 181.365C286.448 186.587 293.312 190.809 303.398 193.916C316.586 197.979 331.88 198.826 342.391 198.822C356.337 198.818 371.278 197.436 382.362 195.123C391.805 193.179 403.888 190.031 413.596 182.881C422.907 176.047 429.981 165.601 434.115 152.806C435.322 149.069 436.279 145.128 436.967 141.022C439.548 125.608 434.968 109.48 424.07 95.6105C418.956 89.1007 412.528 83.3123 405.484 78.866C398.071 74.1891 390.241 71.0823 382.217 69.6312C371.373 67.6694 361.8 68.7968 352.946 73.0718ZM405.127 79.4286C412.109 83.8334 418.478 89.5705 423.546 96.0212C434.325 109.741 438.857 125.685 436.309 140.911C435.626 144.987 434.678 148.894 433.48 152.603C429.39 165.264 422.396 175.596 413.201 182.345C408.155 186.062 400.075 190.797 382.225 194.473C371.183 196.777 356.292 198.156 342.39 198.157C323.431 198.164 310.828 195.511 303.594 193.281C293.66 190.221 286.917 186.089 283.55 180.998C280.518 176.413 279.974 171.105 281.949 164.992C284.077 158.402 289.132 150.879 297.144 142.319C300.238 139.015 303.341 135.169 306.366 130.886C307.12 129.821 307.9 128.682 308.689 127.503C311.59 123.165 314.393 118.561 317.102 114.11C321.776 106.433 326.609 98.4955 332.115 91.644C338.913 83.128 345.822 77.2487 353.236 73.6683C361.958 69.4555 371.398 68.3482 382.098 70.2819C390.037 71.7219 397.785 74.798 405.127 79.4286Z" fill="white" fill-opacity="0.1"/>
<path d="M356.173 81.3958C349.392 84.6473 343.1 89.9945 336.938 97.745C332.054 103.887 327.819 110.97 323.722 117.82C321.274 121.915 318.742 126.149 316.102 130.128C315.4 131.189 314.703 132.209 314.032 133.162C311.366 136.951 308.587 140.385 305.777 143.366C298.383 151.21 293.823 157.945 291.836 163.957C289.977 169.567 290.422 174.389 293.178 178.705C296.224 183.476 302.166 187.214 311.336 190.135C317.926 192.233 329.393 194.729 346.593 194.713C359.151 194.704 372.677 193.431 382.776 191.307C391.246 189.556 402.085 186.725 410.805 180.328C419.245 174.163 425.658 164.721 429.394 153.157C430.449 149.891 431.292 146.451 431.904 142.872C434.28 129.001 430.142 114.453 420.255 101.907C415.643 96.0551 409.852 90.8354 403.502 86.8116C396.799 82.5619 389.734 79.7325 382.503 78.3952C372.751 76.5957 364.135 77.5755 356.173 81.3958ZM403.152 87.3762C409.438 91.3607 415.172 96.5269 419.737 102.321C429.504 114.717 433.595 129.08 431.252 142.761C428.499 158.839 421.099 171.991 410.414 179.794C405.888 183.115 398.642 187.35 382.641 190.658C372.582 192.774 359.106 194.04 346.593 194.049C329.476 194.067 318.082 191.585 311.538 189.501C302.647 186.671 296.656 182.917 293.738 178.348C291.122 174.255 290.69 169.669 292.414 164.33C292.432 164.275 292.45 164.22 292.468 164.165C294.423 158.249 298.935 151.593 306.261 143.823C309.092 140.818 311.891 137.36 314.574 133.544C315.249 132.588 315.948 131.561 316.654 130.495C319.301 126.501 321.838 122.263 324.289 118.162C328.375 111.331 332.6 104.266 337.456 98.1592C343.554 90.4907 349.768 85.2044 356.457 81.9951C364.288 78.2398 372.771 77.2774 382.385 79.0536C389.537 80.3741 396.522 83.1734 403.152 87.3762Z" fill="white" fill-opacity="0.1"/>
<path d="M342.282 104.254C338.023 109.66 334.387 115.891 330.869 121.917C328.693 125.646 326.442 129.499 324.07 133.116C323.453 134.058 322.838 134.968 322.243 135.816C319.915 139.142 317.444 142.186 314.9 144.862C302.199 158.22 298.536 168.126 303.365 176.041C305.959 180.288 311.164 183.661 319.28 186.35C325.176 188.304 335.431 190.627 350.802 190.602C361.878 190.587 373.991 189.423 383.202 187.49C390.731 185.91 400.356 183.377 408.024 177.778C415.596 172.283 421.349 163.844 424.687 153.511C425.591 150.715 426.318 147.778 426.855 144.726C429.026 132.398 425.333 119.429 416.455 108.207C412.345 103.014 407.187 98.3647 401.537 94.7625C395.545 90.9428 389.243 88.3852 382.807 87.1653C366.745 84.1167 353.866 89.5482 342.282 104.254ZM415.936 108.617C424.692 119.688 428.339 132.47 426.201 144.608C423.708 158.77 417.114 170.358 407.635 177.238C403.659 180.14 397.275 183.853 383.066 186.836C373.897 188.762 361.835 189.919 350.804 189.934C335.521 189.96 325.34 187.653 319.491 185.717C311.531 183.081 306.442 179.802 303.935 175.692C299.284 168.074 302.923 158.423 315.384 145.319C317.951 142.62 320.443 139.55 322.79 136.198C323.39 135.344 324.009 134.428 324.627 133.48C327.009 129.848 329.263 125.986 331.445 122.252C334.951 116.245 338.578 110.035 342.806 104.666C354.219 90.177 366.892 84.8231 382.685 87.8154C395.057 90.161 407.488 97.9379 415.936 108.617Z" fill="white" fill-opacity="0.1"/>
<path d="M347.631 110.76C343.988 115.44 340.94 120.832 337.993 126.046C336.098 129.395 334.141 132.859 332.043 136.101C331.511 136.928 330.976 137.724 330.459 138.467C328.463 141.337 326.3 143.989 324.028 146.352C312.927 157.898 309.6 166.483 313.556 173.369C315.697 177.097 320.169 180.102 327.226 182.559C334.573 185.116 344.442 186.509 355.014 186.482C364.694 186.461 375.391 185.408 383.628 183.663C390.595 182.186 398.612 180.027 405.247 175.217C411.95 170.392 417.044 162.955 419.984 153.854C420.735 151.53 421.347 149.094 421.807 146.569C423.773 135.784 420.524 124.395 412.655 114.497C405.119 105.013 394.074 98.0702 383.11 95.9231C368.941 93.1484 357.668 97.8622 347.631 110.76ZM412.135 114.911C419.882 124.658 423.085 135.86 421.153 146.451C420.698 148.95 420.096 151.354 419.353 153.653C416.457 162.617 411.447 169.938 404.859 174.68C398.324 179.419 390.392 181.552 383.493 183.014C375.298 184.75 364.655 185.799 355.016 185.819C344.517 185.846 334.726 184.465 327.447 181.932C320.549 179.531 316.193 176.622 314.135 173.039C311.751 168.892 310.233 161.66 324.509 146.815C326.807 144.425 328.993 141.745 331.006 138.849C331.528 138.1 332.066 137.298 332.604 136.464C334.712 133.204 336.674 129.733 338.573 126.376C341.508 121.183 344.546 115.811 348.157 111.17C358.023 98.4938 369.09 93.8556 382.985 96.5767C393.796 98.693 404.693 105.546 412.135 114.911Z" fill="white" fill-opacity="0.1"/>
<path d="M365.844 106.319C361.189 108.459 356.984 112.04 352.984 117.264C349.947 121.231 347.475 125.798 345.085 130.217C343.485 133.174 341.831 136.231 340.022 139.084C339.575 139.792 339.124 140.475 338.682 141.115C337.016 143.532 335.16 145.794 333.162 147.841C323.524 157.715 320.623 164.763 323.754 170.693C325.45 173.905 329.188 176.544 335.179 178.766C341.53 181.121 350.074 182.398 359.235 182.364C367.522 182.338 376.802 181.393 384.062 179.838C389.632 178.643 396.758 176.748 402.476 172.657C408.319 168.476 412.758 162.037 415.297 154.178C415.894 152.33 416.385 150.407 416.766 148.413C418.53 139.175 415.722 129.362 408.864 120.785C402.334 112.618 392.824 106.597 383.423 104.678C376.89 103.346 371.142 103.883 365.844 106.319ZM408.341 121.2C411.667 125.358 414.03 129.771 415.364 134.314C416.736 138.984 416.986 143.687 416.109 148.29C414.143 158.593 409.163 167.053 402.087 172.117C399.137 174.229 394.404 176.94 383.92 179.189C376.704 180.738 367.475 181.675 359.23 181.701C350.146 181.734 341.685 180.47 335.406 178.143C329.574 175.982 325.953 173.443 324.338 170.383C323.041 167.926 322.856 165.247 323.839 162.206C325.109 158.273 328.334 153.74 333.636 148.306C335.659 146.233 337.54 143.941 339.228 141.494C339.674 140.846 340.13 140.155 340.583 139.44C342.405 136.568 344.064 133.499 345.67 130.534C348.047 126.139 350.506 121.596 353.512 117.67C361.831 106.804 371.292 102.886 383.286 105.333C392.539 107.218 401.905 113.152 408.341 121.2Z" fill="white" fill-opacity="0.1"/>
<path d="M358.344 123.76C355.895 127.031 353.988 130.793 352.145 134.431C350.854 136.978 349.519 139.611 348.006 142.059C347.643 142.65 347.274 143.22 346.908 143.756C345.564 145.732 344.014 147.605 342.302 149.32C334.162 157.484 331.663 163.071 333.952 168.002C335.206 170.704 338.208 172.98 343.131 174.962C348.475 177.112 355.693 178.275 363.458 178.236C370.357 178.205 378.223 177.37 384.5 176.002C389.383 174.939 395.009 173.403 399.708 170.089C404.691 166.573 408.475 161.138 410.614 154.516C411.058 153.144 411.431 151.72 411.729 150.252C413.314 142.445 411.014 134.429 405.074 127.066C399.552 120.219 391.577 115.121 383.74 113.43C373.507 111.223 365.201 114.602 358.344 123.76ZM404.555 127.483C410.364 134.688 412.619 142.514 411.075 150.12C409.373 158.503 405.2 165.401 399.324 169.548C394.721 172.795 389.175 174.306 384.358 175.355C378.123 176.713 370.31 177.543 363.456 177.573C355.775 177.612 348.646 176.466 343.381 174.346C338.622 172.432 335.736 170.265 334.557 167.723C332.405 163.088 334.862 157.724 342.775 149.789C344.515 148.043 346.092 146.138 347.46 144.13C347.832 143.587 348.207 143.007 348.573 142.408C350.098 139.936 351.442 137.291 352.739 134.732C354.57 131.118 356.466 127.383 358.879 124.159C362.095 119.865 365.522 116.941 369.358 115.223C373.632 113.309 378.29 112.934 383.6 114.079C391.291 115.739 399.125 120.75 404.555 127.483Z" fill="white" fill-opacity="0.1"/>
<path d="M363.718 130.248C361.842 132.84 360.481 135.821 359.165 138.703C358.2 140.82 357.2 143.007 356.004 145.029C355.724 145.504 355.437 145.961 355.15 146.39C354.104 147.955 352.898 149.395 351.46 150.791C344.75 157.303 342.705 161.37 344.165 165.297C344.985 167.502 347.252 169.415 351.098 171.151C355.416 173.101 361.312 174.148 367.698 174.104C373.214 174.069 379.665 173.342 384.954 172.164C388.801 171.306 393.237 170.082 396.954 167.517C401.081 164.668 404.215 160.235 405.952 154.858C406.242 153.96 406.494 153.035 406.703 152.085C408.087 145.849 406.217 139.367 401.297 133.339C396.784 127.81 390.343 123.636 384.069 122.173C375.717 120.224 369.06 122.866 363.718 130.248ZM400.783 133.757C405.569 139.621 407.392 145.908 406.054 151.939C404.621 158.401 401.254 163.736 396.574 166.968C392.953 169.468 388.593 170.668 384.808 171.513C379.563 172.683 373.164 173.403 367.692 173.438C361.399 173.482 355.602 172.455 351.368 170.545C347.693 168.887 345.541 167.095 344.785 165.065C343.433 161.43 345.435 157.562 351.92 151.269C353.393 149.839 354.628 148.366 355.7 146.761C355.996 146.323 356.289 145.854 356.574 145.369C357.788 143.318 358.794 141.114 359.769 138.982C361.073 136.129 362.419 133.18 364.255 130.641C369.424 123.499 375.855 120.942 383.918 122.82C390.054 124.248 396.36 128.337 400.783 133.757Z" fill="white" fill-opacity="0.1"/>
<path d="M369.118 136.733C367.789 138.677 366.951 140.91 366.142 143.07C365.521 144.723 364.881 146.431 364.027 147.992C363.823 148.364 363.625 148.698 363.417 149.015C362.677 150.162 361.769 151.219 360.645 152.249C355.828 156.663 353.664 159.332 354.4 162.562C354.792 164.288 356.324 165.848 359.08 167.322C362.35 169.073 366.926 170.009 371.964 169.957C377.944 169.9 383.376 168.786 385.434 168.31C388.246 167.66 391.488 166.749 394.222 164.931C397.509 162.746 399.998 159.329 401.328 155.212C401.466 154.786 401.592 154.352 401.705 153.909C402.895 149.245 401.457 144.297 397.549 139.598C394.845 136.346 389.979 132.357 384.433 130.903C378.058 129.235 372.905 131.196 369.118 136.733ZM397.04 140.025C400.862 144.617 402.214 149.234 401.063 153.746C399.904 158.285 397.346 162.06 393.856 164.379C391.21 166.138 388.038 167.027 385.285 167.663C383.248 168.135 377.872 169.236 371.957 169.293C367.029 169.345 362.567 168.437 359.394 166.739C356.853 165.378 355.392 163.926 355.05 162.418C354.852 161.551 354.888 160.726 355.161 159.883C355.806 157.886 357.777 155.784 361.096 152.741C362.261 151.672 363.203 150.574 363.975 149.38C364.189 149.05 364.397 148.701 364.611 148.313C365.489 146.711 366.137 144.98 366.764 143.306C367.559 141.183 368.383 138.987 369.667 137.111C373.278 131.829 378.19 129.96 384.266 131.55C389.661 132.96 394.402 136.853 397.04 140.025Z" fill="white" fill-opacity="0.1"/>
<path d="M374.573 143.216C373.767 144.536 373.438 146.053 373.12 147.52C372.867 148.684 372.606 149.89 372.106 150.96C371.991 151.207 371.874 151.428 371.745 151.64C371.283 152.397 370.699 153.051 369.902 153.695C369.408 154.094 368.952 154.452 368.51 154.798C366.26 156.559 364.773 157.72 364.704 159.78C364.662 161.021 365.518 162.334 367.11 163.477C369.905 165.479 373.647 165.848 376.292 165.806C380.198 165.747 384.038 164.931 385.98 164.45C387.745 164.012 389.787 163.421 391.551 162.344C393.895 160.913 395.648 158.694 396.761 155.753C396.805 155.64 396.844 155.526 396.881 155.41C397.825 152.488 396.809 149.274 393.861 145.851C391.939 143.619 388.565 140.814 384.866 139.634C380.429 138.216 376.868 139.456 374.573 143.216ZM393.358 146.282C396.253 149.642 397.188 152.743 396.139 155.515C395.079 158.314 393.418 160.421 391.204 161.774C389.518 162.803 387.538 163.377 385.822 163.8C383.908 164.274 380.123 165.078 376.283 165.136C373.736 165.178 370.144 164.828 367.498 162.932C366.091 161.923 365.335 160.81 365.369 159.799C365.427 158.048 366.743 157.022 368.919 155.317C369.365 154.97 369.823 154.61 370.321 154.208C371.179 153.514 371.81 152.807 372.312 151.982C372.454 151.75 372.584 151.508 372.709 151.237C373.239 150.099 373.508 148.856 373.769 147.658C374.091 146.18 374.393 144.783 375.14 143.559C377.287 140.04 380.493 138.933 384.665 140.263C388.232 141.403 391.495 144.12 393.358 146.282Z" fill="white" fill-opacity="0.1"/>
<path d="M380.2 149.772C379.875 150.531 380.05 151.389 380.22 152.217C380.355 152.875 380.482 153.496 380.357 154.015C380.33 154.125 380.294 154.225 380.247 154.319C379.802 155.198 378.968 155.35 378.003 155.525C377.038 155.702 375.942 155.9 375.251 156.951C374.734 157.738 374.743 158.834 375.279 159.612C376.282 161.07 378.142 161.771 380.808 161.694C382.5 161.645 384.491 161.286 386.72 160.628C389.542 159.793 391.213 158.852 391.981 157.665C392.125 157.442 392.235 157.209 392.312 156.971C392.754 155.603 392.097 153.982 390.349 152.136C389.951 151.716 387.849 149.565 385.512 148.417C384.109 147.728 382.918 147.558 381.969 147.908C381.199 148.2 380.604 148.825 380.2 149.772ZM385.22 149.016C386.955 149.868 388.808 151.477 389.869 152.596C391.709 154.536 392.219 156.079 391.424 157.306C390.758 158.337 389.159 159.215 386.535 159.991C384.359 160.634 382.428 160.983 380.792 161.03C378.366 161.101 376.696 160.496 375.829 159.236C375.531 158.802 375.462 158.209 375.625 157.705C375.669 157.568 375.73 157.436 375.808 157.317C376.343 156.505 377.209 156.347 378.125 156.179C379.12 155.998 380.251 155.792 380.842 154.619C380.913 154.478 380.968 154.329 381.006 154.169C381.164 153.507 381.015 152.784 380.874 152.084C380.717 151.32 380.57 150.6 380.812 150.031C381.142 149.257 381.609 148.754 382.204 148.534C382.972 148.248 383.988 148.411 385.22 149.016Z" fill="white" fill-opacity="0.1"/>
</svg>
