<svg width="18" height="18" viewBox="0 0 18 18" fill="none" xmlns="http://www.w3.org/2000/svg">
<path fill-rule="evenodd" clip-rule="evenodd" d="M12.6377 0H5.3623C2.40551 0 0 2.40551 0 5.3623V12.6377C0 15.5945 2.40551 18 5.3623 18H12.6377C15.5945 18 18 15.5945 18 12.6377V5.3623C18 2.40551 15.5945 0 12.6377 0ZM16.1892 12.6375C16.1892 14.5989 14.5991 16.1889 12.6377 16.1889H5.36229C3.40087 16.1889 1.81079 14.5989 1.81079 12.6375V5.36204C1.81079 3.40059 3.40087 1.81055 5.36229 1.81055H12.6377C14.5991 1.81055 16.1892 3.40059 16.1892 5.36204V12.6375ZM4.34463 9.00013C4.34463 6.43315 6.43306 4.34473 9.00007 4.34473C11.5671 4.34473 13.6555 6.43312 13.6555 9.00013C13.6555 11.5671 11.5671 13.6556 9.00007 13.6556C6.43306 13.6556 4.34463 11.5671 4.34463 9.00013ZM8.99993 11.8446C7.42886 11.8446 6.15529 10.571 6.15529 8.99992C6.15529 7.42885 7.4289 6.15527 8.99993 6.15527C10.571 6.15527 11.8446 7.42885 11.8446 8.99992C11.8446 10.5709 10.571 11.8446 8.99993 11.8446ZM14.78 4.37921C14.78 4.99531 14.2805 5.49475 13.6644 5.49475C13.0483 5.49475 12.5489 4.99531 12.5489 4.37921C12.5489 3.76312 13.0483 3.26367 13.6644 3.26367C14.2805 3.26367 14.78 3.76312 14.78 4.37921Z" fill="#6AB8EE"/>
</svg>
