<svg width="24" height="24" viewBox="0 0 24 24" fill="none" xmlns="http://www.w3.org/2000/svg">
<g opacity="0.15">
<path fill-rule="evenodd" clip-rule="evenodd" d="M12 24C18.6274 24 24 18.6274 24 12C24 5.37258 18.6274 0 12 0C5.37258 0 0 5.37258 0 12C0 18.6274 5.37258 24 12 24Z" fill="#6AB8EE"/>
<path fill-rule="evenodd" clip-rule="evenodd" d="M13.7161 7.42888L14.1744 7.89089C14.325 8.05107 14.4004 8.23803 14.4004 8.45153C14.4004 8.66934 14.325 8.85418 14.1744 9.00619L11.2048 12.0008L14.1743 14.9954C14.3249 15.1474 14.4003 15.3322 14.4003 15.55C14.4003 15.7635 14.3249 15.9505 14.1743 16.1107L13.716 16.5666C13.5613 16.7227 13.3759 16.8008 13.16 16.8008C12.94 16.8008 12.7568 16.7227 12.6101 16.5666L8.63257 12.5554C8.47778 12.4074 8.40039 12.2227 8.40039 12.0008C8.40039 11.783 8.47778 11.5962 8.63257 11.4401L12.6101 7.42888C12.7609 7.27687 12.9442 7.20078 13.16 7.20078C13.3719 7.20078 13.5572 7.27687 13.7161 7.42888Z" fill="white"/>
</g>
</svg>
