<svg width="13" height="17" viewBox="0 0 13 17" fill="none" xmlns="http://www.w3.org/2000/svg">
<path fill-rule="evenodd" clip-rule="evenodd" d="M6.48013 0C8.80041 0 11.0198 1.12705 12.1295 3.09945C13.2392 4.97788 13.34 7.23202 12.1294 9.11051V9.20442L7.79155 16.2486C7.48893 16.7183 6.98455 17 6.48013 17C5.97575 17 5.47132 16.7183 5.1687 16.2486L0.931692 9.39226C-0.884161 6.48064 0.0237653 2.62981 3.05017 0.939215C4.05897 0.375664 5.26952 0 6.48013 0ZM3.95807 6.1989C3.95807 4.88397 5.06774 3.85084 6.4801 3.85084C7.89246 3.85084 9.00213 4.88397 9.00213 6.1989C9.00213 7.51384 7.89246 8.54697 6.4801 8.54697C5.06774 8.54697 3.95807 7.51384 3.95807 6.1989Z" fill="#6AB8EE"/>
</svg>
