<svg width="24" height="17" viewBox="0 0 24 17" fill="none" xmlns="http://www.w3.org/2000/svg">
<path d="M4.76634 3.81818V14H3.53338V5.1108H3.47372L0.987926 6.76136V5.50852L3.53338 3.81818H4.76634ZM11.0156 14.1392C10.2666 14.1392 9.62855 13.9354 9.10156 13.5277C8.57457 13.1167 8.17188 12.5218 7.89347 11.7429C7.61506 10.9607 7.47585 10.0161 7.47585 8.90909C7.47585 7.80871 7.61506 6.86908 7.89347 6.0902C8.17519 5.308 8.57955 4.71141 9.10653 4.30043C9.63684 3.88613 10.2732 3.67898 11.0156 3.67898C11.758 3.67898 12.3928 3.88613 12.9197 4.30043C13.45 4.71141 13.8544 5.308 14.1328 6.0902C14.4145 6.86908 14.5554 7.80871 14.5554 8.90909C14.5554 10.0161 14.4162 10.9607 14.1378 11.7429C13.8594 12.5218 13.4567 13.1167 12.9297 13.5277C12.4027 13.9354 11.7647 14.1392 11.0156 14.1392ZM11.0156 13.0455C11.758 13.0455 12.3348 12.6875 12.7457 11.9716C13.1567 11.2557 13.3622 10.2348 13.3622 8.90909C13.3622 8.02746 13.2678 7.27675 13.0788 6.65696C12.8932 6.03717 12.6248 5.56487 12.2734 5.24006C11.9254 4.91525 11.5062 4.75284 11.0156 4.75284C10.2798 4.75284 9.70478 5.11577 9.29048 5.84162C8.87618 6.56416 8.66903 7.58665 8.66903 8.90909C8.66903 9.79072 8.76184 10.5398 8.94744 11.1562C9.13305 11.7727 9.39986 12.2417 9.74787 12.5632C10.0992 12.8847 10.5218 13.0455 11.0156 13.0455ZM16.4446 14V13.1051L19.8054 9.42614C20.1998 8.99526 20.5246 8.62074 20.7798 8.30256C21.035 7.98106 21.224 7.67945 21.3466 7.39773C21.4725 7.11269 21.5355 6.81439 21.5355 6.50284C21.5355 6.14489 21.4493 5.83499 21.277 5.57315C21.108 5.31132 20.8759 5.10914 20.581 4.96662C20.286 4.8241 19.9545 4.75284 19.5866 4.75284C19.1955 4.75284 18.8542 4.83404 18.5625 4.99645C18.2741 5.15554 18.0504 5.37926 17.8913 5.66761C17.7356 5.95597 17.6577 6.29403 17.6577 6.68182H16.4844C16.4844 6.08523 16.6219 5.56155 16.897 5.1108C17.1721 4.66004 17.5466 4.30871 18.0206 4.05682C18.4979 3.80492 19.0331 3.67898 19.6264 3.67898C20.223 3.67898 20.7517 3.80492 21.2124 4.05682C21.6731 4.30871 22.0343 4.64844 22.2962 5.07599C22.558 5.50355 22.6889 5.97917 22.6889 6.50284C22.6889 6.87737 22.621 7.24361 22.4851 7.60156C22.3525 7.9562 22.1205 8.35227 21.7891 8.78977C21.4609 9.22396 21.0052 9.75426 20.4219 10.3807L18.1349 12.8267V12.9062H22.8679V14H16.4446Z" fill="#02131F"/>
</svg>
