<svg width="22" height="17" viewBox="0 0 22 17" fill="none" xmlns="http://www.w3.org/2000/svg">
<path d="M4.75071 3.81818V14H3.51776V5.1108H3.4581L0.972301 6.76136V5.50852L3.51776 3.81818H4.75071ZM11 14.1392C10.2509 14.1392 9.61293 13.9354 9.08594 13.5277C8.55895 13.1167 8.15625 12.5218 7.87784 11.7429C7.59943 10.9607 7.46023 10.0161 7.46023 8.90909C7.46023 7.80871 7.59943 6.86908 7.87784 6.0902C8.15956 5.308 8.56392 4.71141 9.09091 4.30043C9.62121 3.88613 10.2576 3.67898 11 3.67898C11.7424 3.67898 12.3771 3.88613 12.9041 4.30043C13.4344 4.71141 13.8388 5.308 14.1172 6.0902C14.3989 6.86908 14.5398 7.80871 14.5398 8.90909C14.5398 10.0161 14.4006 10.9607 14.1222 11.7429C13.8438 12.5218 13.4411 13.1167 12.9141 13.5277C12.3871 13.9354 11.7491 14.1392 11 14.1392ZM11 13.0455C11.7424 13.0455 12.3191 12.6875 12.7301 11.9716C13.1411 11.2557 13.3466 10.2348 13.3466 8.90909C13.3466 8.02746 13.2521 7.27675 13.0632 6.65696C12.8776 6.03717 12.6091 5.56487 12.2578 5.24006C11.9098 4.91525 11.4905 4.75284 11 4.75284C10.2642 4.75284 9.68916 5.11577 9.27486 5.84162C8.86056 6.56416 8.65341 7.58665 8.65341 8.90909C8.65341 9.79072 8.74621 10.5398 8.93182 11.1562C9.11742 11.7727 9.38423 12.2417 9.73224 12.5632C10.0836 12.8847 10.5062 13.0455 11 13.0455ZM20.0085 3.81818V14H18.7756V5.1108H18.7159L16.2301 6.76136V5.50852L18.7756 3.81818H20.0085Z" fill="#02131F"/>
</svg>
