<svg width="9" height="17" viewBox="0 0 9 17" fill="none" xmlns="http://www.w3.org/2000/svg">
<path d="M4.53729 14.1392C3.88104 14.1392 3.29605 14.0265 2.78232 13.8011C2.2719 13.5758 1.86589 13.2625 1.56428 12.8615C1.26598 12.4571 1.10357 11.9882 1.07706 11.4545H2.3299C2.35642 11.7827 2.46911 12.0661 2.66797 12.3047C2.86683 12.54 3.12701 12.7223 3.44851 12.8516C3.77 12.9808 4.1263 13.0455 4.5174 13.0455C4.9549 13.0455 5.34268 12.9692 5.68075 12.8168C6.01882 12.6643 6.28397 12.4522 6.47621 12.1804C6.66844 11.9086 6.76456 11.5938 6.76456 11.2358C6.76456 10.8613 6.67176 10.5315 6.48615 10.2464C6.30054 9.9581 6.02876 9.73272 5.67081 9.57031C5.31286 9.40791 4.87536 9.3267 4.35831 9.3267H3.54297V8.23295H4.35831C4.76267 8.23295 5.11731 8.16004 5.42223 8.0142C5.73047 7.86837 5.97076 7.66288 6.14311 7.39773C6.31877 7.13258 6.40661 6.82102 6.40661 6.46307C6.40661 6.11837 6.33037 5.81842 6.17791 5.56321C6.02545 5.308 5.81001 5.10914 5.53161 4.96662C5.25651 4.8241 4.9317 4.75284 4.55717 4.75284C4.20585 4.75284 3.87441 4.81747 3.56286 4.94673C3.25462 5.07268 3.00272 5.25663 2.80717 5.49858C2.61162 5.73722 2.50556 6.02557 2.48899 6.36364H1.29581C1.3157 5.83002 1.47644 5.36269 1.77805 4.96165C2.07966 4.55729 2.47408 4.24242 2.96129 4.01705C3.45182 3.79167 3.99041 3.67898 4.57706 3.67898C5.20679 3.67898 5.74704 3.80658 6.1978 4.06179C6.64856 4.31368 6.99491 4.64678 7.23686 5.06108C7.47881 5.47538 7.59979 5.92282 7.59979 6.40341C7.59979 6.9768 7.44898 7.46567 7.14737 7.87003C6.84908 8.27438 6.44306 8.55445 5.92933 8.71023V8.78977C6.57232 8.89583 7.07446 9.16927 7.43572 9.61009C7.79699 10.0476 7.97763 10.5895 7.97763 11.2358C7.97763 11.7893 7.82682 12.2865 7.52521 12.7273C7.22692 13.1648 6.81925 13.5095 6.3022 13.7614C5.78516 14.0133 5.19685 14.1392 4.53729 14.1392Z" fill="#02131F"/>
</svg>
