<svg width="9" height="17" viewBox="0 0 9 17" fill="none" xmlns="http://www.w3.org/2000/svg">
<path d="M1.3157 14V13.1051L4.67649 9.42614C5.0709 8.99526 5.39572 8.62074 5.65092 8.30256C5.90613 7.98106 6.09505 7.67945 6.21768 7.39773C6.34363 7.11269 6.40661 6.81439 6.40661 6.50284C6.40661 6.14489 6.32043 5.83499 6.14808 5.57315C5.97905 5.31132 5.74704 5.10914 5.45206 4.96662C5.15708 4.8241 4.82564 4.75284 4.45774 4.75284C4.06664 4.75284 3.72526 4.83404 3.43359 4.99645C3.14524 5.15554 2.92152 5.37926 2.76243 5.66761C2.60665 5.95597 2.52876 6.29403 2.52876 6.68182H1.35547C1.35547 6.08523 1.49302 5.56155 1.76811 5.1108C2.04321 4.66004 2.41773 4.30871 2.89169 4.05682C3.36896 3.80492 3.90424 3.67898 4.49751 3.67898C5.09411 3.67898 5.62275 3.80492 6.08345 4.05682C6.54415 4.30871 6.90542 4.64844 7.16726 5.07599C7.4291 5.50355 7.56001 5.97917 7.56001 6.50284C7.56001 6.87737 7.49207 7.24361 7.35618 7.60156C7.2236 7.9562 6.9916 8.35227 6.66016 8.78977C6.33203 9.22396 5.8763 9.75426 5.29297 10.3807L3.00604 12.8267V12.9062H7.73899V14H1.3157Z" fill="#02131F"/>
</svg>
