<svg width="25" height="17" viewBox="0 0 25 17" fill="none" xmlns="http://www.w3.org/2000/svg">
<path d="M5.04759 3.81818V14H3.81463V5.1108H3.75497L1.26918 6.76136V5.50852L3.81463 3.81818H5.04759ZM11.2969 14.1392C10.5478 14.1392 9.9098 13.9354 9.38281 13.5277C8.85582 13.1167 8.45313 12.5218 8.17472 11.7429C7.89631 10.9607 7.7571 10.0161 7.7571 8.90909C7.7571 7.80871 7.89631 6.86908 8.17472 6.0902C8.45644 5.308 8.8608 4.71141 9.38778 4.30043C9.91809 3.88613 10.5545 3.67898 11.2969 3.67898C12.0393 3.67898 12.674 3.88613 13.201 4.30043C13.7313 4.71141 14.1357 5.308 14.4141 6.0902C14.6958 6.86908 14.8366 7.80871 14.8366 8.90909C14.8366 10.0161 14.6974 10.9607 14.419 11.7429C14.1406 12.5218 13.7379 13.1167 13.2109 13.5277C12.6839 13.9354 12.0459 14.1392 11.2969 14.1392ZM11.2969 13.0455C12.0393 13.0455 12.616 12.6875 13.027 11.9716C13.438 11.2557 13.6435 10.2348 13.6435 8.90909C13.6435 8.02746 13.549 7.27675 13.3601 6.65696C13.1745 6.03717 12.906 5.56487 12.5547 5.24006C12.2067 4.91525 11.7874 4.75284 11.2969 4.75284C10.5611 4.75284 9.98603 5.11577 9.57173 5.84162C9.15743 6.56416 8.95028 7.58665 8.95028 8.90909C8.95028 9.79072 9.04309 10.5398 9.22869 11.1562C9.4143 11.7727 9.68111 12.2417 10.0291 12.5632C10.3804 12.8847 10.803 13.0455 11.2969 13.0455ZM20.1662 14.1392C19.5099 14.1392 18.925 14.0265 18.4112 13.8011C17.9008 13.5758 17.4948 13.2625 17.1932 12.8615C16.8949 12.4571 16.7325 11.9882 16.706 11.4545H17.9588C17.9853 11.7827 18.098 12.0661 18.2969 12.3047C18.4957 12.54 18.7559 12.7223 19.0774 12.8516C19.3989 12.9808 19.7552 13.0455 20.1463 13.0455C20.5838 13.0455 20.9716 12.9692 21.3097 12.8168C21.6477 12.6643 21.9129 12.4522 22.1051 12.1804C22.2973 11.9086 22.3935 11.5938 22.3935 11.2358C22.3935 10.8613 22.3007 10.5315 22.1151 10.2464C21.9295 9.9581 21.6577 9.73272 21.2997 9.57031C20.9418 9.40791 20.5043 9.3267 19.9872 9.3267H19.1719V8.23295H19.9872C20.3916 8.23295 20.7462 8.16004 21.0511 8.0142C21.3594 7.86837 21.5997 7.66288 21.772 7.39773C21.9477 7.13258 22.0355 6.82102 22.0355 6.46307C22.0355 6.11837 21.9593 5.81842 21.8068 5.56321C21.6544 5.308 21.4389 5.10914 21.1605 4.96662C20.8854 4.8241 20.5606 4.75284 20.1861 4.75284C19.8348 4.75284 19.5033 4.81747 19.1918 4.94673C18.8835 5.07268 18.6316 5.25663 18.4361 5.49858C18.2405 5.73722 18.1345 6.02557 18.1179 6.36364H16.9247C16.9446 5.83002 17.1054 5.36269 17.407 4.96165C17.7086 4.55729 18.103 4.24242 18.5902 4.01705C19.0807 3.79167 19.6193 3.67898 20.206 3.67898C20.8357 3.67898 21.3759 3.80658 21.8267 4.06179C22.2775 4.31368 22.6238 4.64678 22.8658 5.06108C23.1077 5.47538 23.2287 5.92282 23.2287 6.40341C23.2287 6.9768 23.0779 7.46567 22.7763 7.87003C22.478 8.27438 22.072 8.55445 21.5582 8.71023V8.78977C22.2012 8.89583 22.7034 9.16927 23.0646 9.61009C23.4259 10.0476 23.6065 10.5895 23.6065 11.2358C23.6065 11.7893 23.4557 12.2865 23.1541 12.7273C22.8558 13.1648 22.4482 13.5095 21.9311 13.7614C21.4141 14.0133 20.8258 14.1392 20.1662 14.1392Z" fill="#02131F"/>
</svg>
