<svg width="24" height="24" viewBox="0 0 24 24" fill="none" xmlns="http://www.w3.org/2000/svg">
<path fill-rule="evenodd" clip-rule="evenodd" d="M12 24C18.6274 24 24 18.6274 24 12C24 5.37258 18.6274 0 12 0C5.37258 0 0 5.37258 0 12C0 18.6274 5.37258 24 12 24Z" fill="#6AB8EE"/>
<path fill-rule="evenodd" clip-rule="evenodd" d="M10.2839 7.42888L9.82564 7.89089C9.67498 8.05107 9.59961 8.23803 9.59961 8.45153C9.59961 8.66934 9.67498 8.85418 9.82564 9.00619L12.7952 12.0008L9.82571 14.9954C9.67505 15.1474 9.59968 15.3322 9.59968 15.55C9.59968 15.7635 9.67505 15.9505 9.82571 16.1107L10.284 16.5666C10.4387 16.7227 10.6241 16.8008 10.84 16.8008C11.06 16.8008 11.2432 16.7227 11.3899 16.5666L15.3674 12.5554C15.5222 12.4074 15.5996 12.2227 15.5996 12.0008C15.5996 11.783 15.5222 11.5962 15.3674 11.4401L11.3899 7.42888C11.2391 7.27687 11.0558 7.20078 10.84 7.20078C10.6281 7.20078 10.4428 7.27687 10.2839 7.42888Z" fill="white"/>
</svg>
