<svg width="20" height="18" viewBox="0 0 20 18" fill="none" xmlns="http://www.w3.org/2000/svg">
<path fill-rule="evenodd" clip-rule="evenodd" d="M4.96164 10.4088L0.353242 8.6309C-0.114806 8.44956 -0.118868 7.76652 0.347851 7.58045L19.2609 0.0386264C19.6618 -0.121676 20.0756 0.241448 19.9882 0.676688L16.5942 17.5528C16.5142 17.9512 16.0622 18.1319 15.7432 17.8922L11.11 14.4151C10.8286 14.2039 10.445 14.2153 10.1758 14.4421L7.607 16.6068C7.30879 16.8588 6.85954 16.7184 6.74539 16.3386L4.96164 10.4088ZM15.4644 3.72813L6.45788 9.46213C6.11268 9.6824 5.95015 10.1133 6.06167 10.5167L7.03546 14.0537C7.1046 14.3043 7.45655 14.2786 7.49007 14.0197L7.74327 12.08C7.79101 11.7149 7.95956 11.3784 8.22081 11.127L15.6538 3.9849C15.7928 3.85161 15.6263 3.62537 15.4644 3.72813Z" fill="#6AB8EE"/>
</svg>
